<svg width="24" height="24" viewBox="0 0 24 24" fill="none" xmlns="http://www.w3.org/2000/svg">
<path d="M16.5 5.16993C18.7449 6.46601 19.7434 9.18075 18.8734 11.6226L18.3242 13.1642C18.0733 13.8683 17.9122 14.6012 17.8447 15.3456L17.7261 16.6544C17.5558 18.5326 15.4954 19.601 13.8622 18.6581L6.13786 14.1984C4.50463 13.2555 4.39974 10.9369 5.94114 9.85037L7.01524 9.09322C7.62618 8.66256 8.18037 8.15658 8.66472 7.58727L9.72516 6.34079C11.4048 4.36645 14.2551 3.87385 16.5 5.16993ZM16.5 5.16993C17.2175 5.58415 18.1348 5.33875 18.549 4.62131C18.9633 3.90387 18.7174 2.98649 18 2.57228C17.2826 2.15806 16.3652 2.40387 15.951 3.12131C15.5367 3.83875 15.7826 4.75572 16.5 5.16993ZM13.1941 20.6328C12.6051 21.6529 11.3007 22.0024 10.2807 21.4134C9.26056 20.8245 8.91105 19.5201 9.5 18.5" stroke="currentColor" stroke-width="1.5" stroke-linecap="round" stroke-linejoin="round"/>
</svg>
