<svg width="24" height="24" viewBox="0 0 24 24" fill="none" xmlns="http://www.w3.org/2000/svg">
<path d="M9.66437 21.9999L9.67865 13.3594H7.51972C7.23915 13.3594 7.01143 13.1235 7.01035 12.8318L7 10.0466C6.99892 9.75325 7.22732 9.51488 7.50943 9.51488H9.66442V6.82367C9.66442 3.70056 11.4989 2 14.1783 2H16.377C16.6583 2 16.8864 2.23713 16.8864 2.52969V4.87817C16.8864 5.17061 16.6585 5.40768 16.3773 5.40786L15.028 5.40851C13.5708 5.40851 13.2886 6.12849 13.2886 7.18508V9.51494H16.4905C16.7956 9.51494 17.0323 9.79193 16.9964 10.107L16.6789 12.8922C16.6485 13.1587 16.4312 13.3595 16.1731 13.3595H13.3029L13.2886 22L9.66437 21.9999Z" fill="currentColor"/>
</svg>
