<svg width="40" height="40" viewBox="0 0 40 40" fill="none" xmlns="http://www.w3.org/2000/svg">
<rect width="40" height="40" rx="8" fill="#EAF0F4"/>
<path d="M17.6644 29.9999L17.6786 21.3594H15.5197C15.2392 21.3594 15.0114 21.1235 15.0104 20.8318L15 18.0466C14.9989 17.7533 15.2273 17.5149 15.5094 17.5149H17.6644V14.8237C17.6644 11.7006 19.4989 10 22.1783 10H24.377C24.6583 10 24.8864 10.2371 24.8864 10.5297V12.8782C24.8864 13.1706 24.6585 13.4077 24.3773 13.4079L23.028 13.4085C21.5708 13.4085 21.2886 14.1285 21.2886 15.1851V17.5149H24.4905C24.7956 17.5149 25.0323 17.7919 24.9964 18.107L24.6789 20.8922C24.6485 21.1587 24.4312 21.3595 24.1731 21.3595H21.3029L21.2886 30L17.6644 29.9999Z" fill="#777E87"/>
</svg>
