<svg width="24" height="24" viewBox="0 0 24 24" fill="none" xmlns="http://www.w3.org/2000/svg">
<path fill-rule="evenodd" clip-rule="evenodd" d="M16.9942 20.0006C18.3183 18.7205 19.0622 16.9842 19.0622 15.1738C19.0631 14.2085 18.8517 13.254 18.4419 12.3738C18.0322 11.4935 17.4335 10.7076 16.6856 10.0681C16.5316 9.93749 16.3709 9.80933 16.205 9.68945C15.3562 9.07892 14.3757 8.66173 13.3367 8.46906C12.8953 8.38684 12.4469 8.34558 11.9974 8.34586C11.9008 8.34586 11.805 8.34421 11.7101 8.33925C11.3565 8.32536 11.0047 8.28332 10.6582 8.21357C10.4356 8.16965 10.2155 8.11445 9.99886 8.0482C8.67323 7.63774 7.51671 6.8308 6.69609 5.74376C5.87548 4.65673 5.43319 3.34578 5.43301 2H3C2.99938 3.48063 3.38995 4.93687 4.13468 6.23064C4.87941 7.5244 5.95361 8.6128 7.25542 9.39262C7.43073 9.49928 7.61032 9.59849 7.79419 9.69193C8.68988 10.1505 9.65988 10.4581 10.6625 10.6014C11.1058 10.6657 11.5535 10.6977 12.0017 10.6973C12.0984 10.6973 12.1941 10.6998 12.2891 10.7064C12.6458 10.727 12.9988 10.7878 13.3409 10.8875C13.5203 10.94 13.6963 11.0029 13.8677 11.076C14.6893 11.4261 15.3879 11.9996 15.8784 12.7268C16.3688 13.4539 16.6299 14.3032 16.63 15.1713C16.63 16.3581 16.1424 17.4962 15.2744 18.3354C14.4064 19.1746 13.2292 19.646 12.0017 19.646C11.394 19.646 10.7922 19.5303 10.2307 19.3054C9.6692 19.0805 9.15903 18.7509 8.72933 18.3354C8.29962 17.9198 7.95879 17.4265 7.72629 16.8836C7.49379 16.3407 7.37418 15.7589 7.37429 15.1713C7.37416 14.3033 7.63514 13.454 8.12544 12.7268C8.61574 11.9997 9.31419 11.4261 10.1357 11.076C9.14541 10.8873 8.19269 10.5468 7.31357 10.0673C6.56634 10.7072 5.96839 11.4935 5.55939 12.3739C5.15039 13.2542 4.93969 14.2086 4.94128 15.1738C4.94128 16.9842 5.68514 18.7205 7.00923 20.0006C8.33332 21.2808 10.1292 22 12.0017 22C13.8743 22 15.6701 21.2808 16.9942 20.0006ZM19.8666 6.22963C20.6107 4.93605 21.0008 3.48018 21 2H18.5644C18.5644 3.34547 18.1225 4.65619 17.3024 5.74319C16.4822 6.83019 15.3263 7.63731 14.0011 8.0482C15.0022 8.30964 15.9371 8.76694 16.748 9.39179C18.049 8.61164 19.1225 7.52321 19.8666 6.22963ZM16.7574 2C16.7569 2.99413 16.4234 3.96135 15.8067 4.75685C15.19 5.55234 14.3234 6.13331 13.3367 6.41275V7.90516C12.989 7.84575 12.6376 7.80983 12.2848 7.79768C12.1899 7.79354 12.0941 7.79189 11.9974 7.79189C11.5468 7.79205 11.0976 7.74324 10.6582 7.64637V6.41275C9.67144 6.13331 8.80484 5.55234 8.18818 4.75685C7.57151 3.96135 7.23796 2.99413 7.23746 2H9.71751C9.71722 2.34688 9.80193 2.6889 9.9647 2.99803C10.1275 3.30717 10.3637 3.57462 10.6539 3.7785C11.0426 4.05327 11.5117 4.20099 11.9932 4.20017C12.4769 4.20373 12.9491 4.05772 13.3409 3.78346C13.6321 3.57995 13.8692 3.31255 14.0328 3.00324C14.1963 2.69392 14.2816 2.35151 14.2817 2.00413L16.7574 2ZM13.3409 18.873V11.4729C12.9107 11.3264 12.4579 11.2515 12.0017 11.2513C11.9059 11.2513 11.8101 11.2497 11.7144 11.2464C11.3624 11.2385 11.0112 11.2109 10.6625 11.1637V18.873C11.0929 19.0186 11.5457 19.0927 12.0017 19.0921C12.4577 19.0927 12.9105 19.0186 13.3409 18.873Z" fill="currentColor"/>
</svg>
