<svg width="40" height="40" viewBox="0 0 40 40" fill="none" xmlns="http://www.w3.org/2000/svg">
<rect width="40" height="40" rx="8" fill="#EAF0F4"/>
<path fill-rule="evenodd" clip-rule="evenodd" d="M24.9942 28.0006C26.3183 26.7205 27.0622 24.9842 27.0622 23.1738C27.0631 22.2085 26.8517 21.254 26.4419 20.3738C26.0322 19.4935 25.4335 18.7076 24.6856 18.0681C24.5316 17.9375 24.3709 17.8093 24.205 17.6894C23.3562 17.0789 22.3757 16.6617 21.3367 16.4691C20.8953 16.3868 20.4469 16.3456 19.9974 16.3459C19.9008 16.3459 19.805 16.3442 19.7101 16.3392C19.3565 16.3254 19.0047 16.2833 18.6582 16.2136C18.4356 16.1697 18.2155 16.1145 17.9989 16.0482C16.6732 15.6377 15.5167 14.8308 14.6961 13.7438C13.8755 12.6567 13.4332 11.3458 13.433 10H11C10.9994 11.4806 11.3899 12.9369 12.1347 14.2306C12.8794 15.5244 13.9536 16.6128 15.2554 17.3926C15.4307 17.4993 15.6103 17.5985 15.7942 17.6919C16.6899 18.1505 17.6599 18.4581 18.6625 18.6014C19.1058 18.6657 19.5535 18.6977 20.0017 18.6973C20.0984 18.6973 20.1941 18.6998 20.2891 18.7064C20.6458 18.727 20.9988 18.7878 21.3409 18.8875C21.5203 18.94 21.6963 19.0029 21.8677 19.076C22.6893 19.4261 23.3879 19.9996 23.8784 20.7268C24.3688 21.4539 24.6299 22.3032 24.63 23.1713C24.63 24.3581 24.1424 25.4962 23.2744 26.3354C22.4064 27.1746 21.2292 27.646 20.0017 27.646C19.394 27.646 18.7922 27.5303 18.2307 27.3054C17.6692 27.0805 17.159 26.7509 16.7293 26.3354C16.2996 25.9198 15.9588 25.4265 15.7263 24.8836C15.4938 24.3407 15.3742 23.7589 15.3743 23.1713C15.3742 22.3033 15.6351 21.454 16.1254 20.7268C16.6157 19.9997 17.3142 19.4261 18.1357 19.076C17.1454 18.8873 16.1927 18.5468 15.3136 18.0673C14.5663 18.7072 13.9684 19.4935 13.5594 20.3739C13.1504 21.2542 12.9397 22.2086 12.9413 23.1738C12.9413 24.9842 13.6851 26.7205 15.0092 28.0006C16.3333 29.2808 18.1292 30 20.0017 30C21.8743 30 23.6701 29.2808 24.9942 28.0006ZM27.8666 14.2296C28.6107 12.936 29.0008 11.4802 29 10H26.5644C26.5644 11.3455 26.1225 12.6562 25.3024 13.7432C24.4822 14.8302 23.3263 15.6373 22.0011 16.0482C23.0022 16.3096 23.9371 16.7669 24.748 17.3918C26.049 16.6116 27.1225 15.5232 27.8666 14.2296ZM24.7574 10C24.7569 10.9941 24.4234 11.9614 23.8067 12.7568C23.19 13.5523 22.3234 14.1333 21.3367 14.4128V15.9052C20.989 15.8457 20.6376 15.8098 20.2848 15.7977C20.1899 15.7935 20.0941 15.7919 19.9974 15.7919C19.5468 15.792 19.0976 15.7432 18.6582 15.6464V14.4128C17.6714 14.1333 16.8048 13.5523 16.1882 12.7568C15.5715 11.9614 15.238 10.9941 15.2375 10H17.7175C17.7172 10.3469 17.8019 10.6889 17.9647 10.998C18.1275 11.3072 18.3637 11.5746 18.6539 11.7785C19.0426 12.0533 19.5117 12.201 19.9932 12.2002C20.4769 12.2037 20.9491 12.0577 21.3409 11.7835C21.6321 11.5799 21.8692 11.3126 22.0328 11.0032C22.1963 10.6939 22.2816 10.3515 22.2817 10.0041L24.7574 10ZM21.3409 26.873V19.4729C20.9107 19.3264 20.4579 19.2515 20.0017 19.2513C19.9059 19.2513 19.8101 19.2497 19.7144 19.2464C19.3624 19.2385 19.0112 19.2109 18.6625 19.1637V26.873C19.0929 27.0186 19.5457 27.0927 20.0017 27.0921C20.4577 27.0927 20.9105 27.0186 21.3409 26.873Z" fill="#777E87"/>
</svg>
