<svg width="40" height="40" viewBox="0 0 40 40" fill="none" xmlns="http://www.w3.org/2000/svg">
<rect width="40" height="40" rx="8" fill="#EAF0F4"/>
<path d="M25.825 12.9296C25.4832 12.9296 25.1555 13.0652 24.9137 13.3068C24.6719 13.5483 24.536 13.876 24.5356 14.2177C24.5355 14.3872 24.5687 14.555 24.6334 14.7116C24.6982 14.8682 24.7931 15.0105 24.9128 15.1304C25.0326 15.2503 25.1748 15.3454 25.3313 15.4104C25.4878 15.4753 25.6555 15.5088 25.825 15.5088C25.9945 15.5088 26.1623 15.4754 26.3189 15.4105C26.4755 15.3456 26.6177 15.2505 26.7375 15.1306C26.8573 15.0107 26.9523 14.8684 27.0171 14.7117C27.0818 14.5551 27.1151 14.3872 27.1149 14.2177C27.1145 13.8759 26.9783 13.5483 26.7365 13.3068C26.4946 13.0652 26.1668 12.9296 25.825 12.9296Z" fill="#777E87"/>
<path d="M20.091 14.5836C19.0195 14.5836 17.9721 14.9013 17.0811 15.4966C16.1902 16.0919 15.4958 16.938 15.0857 17.928C14.6757 18.9179 14.5684 20.0072 14.7774 21.0582C14.9865 22.1091 15.5025 23.0744 16.2601 23.8321C17.0178 24.5898 17.9832 25.1058 19.0341 25.3148C20.085 25.5239 21.1743 25.4166 22.1643 25.0065C23.1542 24.5965 24.0004 23.9021 24.5957 23.0111C25.191 22.1202 25.5087 21.0727 25.5087 20.0012C25.5072 18.5648 24.9359 17.1877 23.9202 16.1721C22.9045 15.1564 21.5274 14.5851 20.091 14.5836ZM20.091 23.471C19.4046 23.471 18.7337 23.2674 18.1629 22.8861C17.5922 22.5047 17.1474 21.9627 16.8848 21.3286C16.6222 20.6944 16.5535 19.9966 16.6874 19.3234C16.8214 18.6502 17.1519 18.0319 17.6373 17.5466C18.1227 17.0612 18.7411 16.7308 19.4143 16.5969C20.0876 16.4631 20.7854 16.5319 21.4195 16.7947C22.0536 17.0574 22.5955 17.5023 22.9768 18.0731C23.358 18.6438 23.5615 19.3148 23.5613 20.0012C23.5603 20.9212 23.1943 21.8032 22.5437 22.4537C21.8931 23.1042 21.011 23.4701 20.091 23.471Z" fill="#777E87"/>
<path d="M24.3922 31.0001H15.6092C13.8569 30.9984 12.1768 30.3015 10.9377 29.0625C9.69866 27.8234 9.00181 26.1433 9.00012 24.391V15.6091C9.00181 13.8568 9.69866 12.1767 10.9377 10.9377C12.1768 9.6986 13.8569 9.00175 15.6092 9.00006H24.3922C26.1443 9.00206 27.8241 9.69904 29.0629 10.9381C30.3017 12.1771 30.9984 13.857 31.0001 15.6091V24.3928C30.998 26.1446 30.3011 27.824 29.0623 29.0627C27.8235 30.3013 26.144 30.9981 24.3922 31.0001ZM15.6092 11.0715C14.4056 11.0721 13.2515 11.5503 12.4002 12.401C11.5489 13.2518 11.07 14.4056 11.0686 15.6091V24.3928C11.07 25.5959 11.5486 26.7494 12.3994 27.6002C13.2502 28.451 14.4037 28.9296 15.6068 28.931H24.3899C25.5931 28.9296 26.7466 28.451 27.5974 27.6002C28.4482 26.7494 28.9267 25.5959 28.9281 24.3928V15.6091C28.9267 14.406 28.4482 13.2525 27.5974 12.4018C26.7466 11.5511 25.5931 11.0727 24.3899 11.0715H15.6092Z" fill="#777E87"/>
</svg>
