<svg width="24" height="24" viewBox="0 0 24 24" fill="none" xmlns="http://www.w3.org/2000/svg">
<path d="M17.825 4.92957C17.4832 4.92957 17.1555 5.06525 16.9137 5.3068C16.6719 5.54834 16.536 5.876 16.5356 6.21775C16.5355 6.38719 16.5687 6.55501 16.6334 6.7116C16.6982 6.8682 16.7931 7.01051 16.9128 7.13041C17.0326 7.2503 17.1748 7.34543 17.3313 7.41037C17.4878 7.4753 17.6555 7.50876 17.825 7.50883C17.9945 7.50883 18.1623 7.47543 18.3189 7.41053C18.4755 7.34563 18.6177 7.25052 18.7375 7.13061C18.8573 7.01071 18.9523 6.86837 19.0171 6.71174C19.0818 6.5551 19.1151 6.38724 19.1149 6.21775C19.1145 5.87594 18.9783 5.54829 18.7365 5.30676C18.4946 5.06523 18.1668 4.92957 17.825 4.92957Z" fill="currentColor"/>
<path d="M12.091 6.58356C11.0195 6.58356 9.97205 6.9013 9.08112 7.4966C8.19019 8.0919 7.49579 8.93803 7.08574 9.92798C6.67569 10.9179 6.5684 12.0072 6.77744 13.0582C6.98648 14.1091 7.50247 15.0744 8.26014 15.8321C9.01782 16.5898 9.98316 17.1058 11.0341 17.3148C12.085 17.5239 13.1743 17.4166 14.1643 17.0065C15.1542 16.5965 16.0004 15.9021 16.5957 15.0111C17.191 14.1202 17.5087 13.0727 17.5087 12.0012C17.5072 10.5648 16.9359 9.18773 15.9202 8.17205C14.9045 7.15637 13.5274 6.58509 12.091 6.58356ZM12.091 15.471C11.4046 15.471 10.7337 15.2674 10.1629 14.8861C9.59224 14.5047 9.14744 13.9627 8.8848 13.3286C8.62216 12.6944 8.55346 11.9966 8.68741 11.3234C8.82137 10.6502 9.15194 10.0319 9.63733 9.54656C10.1227 9.06125 10.7411 8.73077 11.4143 8.59694C12.0876 8.4631 12.7854 8.53191 13.4195 8.79466C14.0536 9.05741 14.5955 9.5023 14.9768 10.0731C15.358 10.6438 15.5615 11.3148 15.5613 12.0012C15.5603 12.9212 15.1943 13.8032 14.5437 14.4537C13.8931 15.1042 13.011 15.4701 12.091 15.471Z" fill="currentColor"/>
<path d="M16.3922 23.0001H7.60917C5.85686 22.9984 4.1768 22.3015 2.93773 21.0625C1.69866 19.8234 1.00181 18.1433 1.00012 16.391L1.00012 7.6091C1.00181 5.8568 1.69866 4.17674 2.93773 2.93767C4.1768 1.6986 5.85686 1.00175 7.60917 1.00006L16.3922 1.00006C18.1443 1.00206 19.8241 1.69904 21.0629 2.93808C22.3017 4.17712 22.9984 5.857 23.0001 7.6091V16.3928C22.998 18.1446 22.3011 19.824 21.0623 21.0627C19.8235 22.3013 18.144 22.9981 16.3922 23.0001ZM7.60917 3.07147C6.40563 3.07209 5.25153 3.55026 4.40023 4.40102C3.54893 5.25177 3.07002 6.40557 3.06864 7.6091L3.06864 16.3928C3.07002 17.5959 3.54859 18.7494 4.39937 19.6002C5.25015 20.451 6.40366 20.9296 7.60685 20.931H16.3899C17.5931 20.9296 18.7466 20.451 19.5974 19.6002C20.4482 18.7494 20.9267 17.5959 20.9281 16.3928V7.6091C20.9267 6.40597 20.4482 5.25252 19.5974 4.40184C18.7466 3.55115 17.5931 3.0727 16.3899 3.07147L7.60917 3.07147Z" fill="currentColor"/>
</svg>
