<svg width="24" height="24" viewBox="0 0 24 24" fill="none" xmlns="http://www.w3.org/2000/svg">
<path fill-rule="evenodd" clip-rule="evenodd" d="M1 2.57594C1 1.70581 1.72327 1 2.61551 1H21.2458C22.138 1 22.8613 1.70581 22.8613 2.57594V21.424C22.8613 22.2945 22.138 23 21.2458 23H2.61551C1.72327 23 1 22.2945 1 21.424V2.57594ZM7.62676 19.4163V9.48208H4.32481V19.4163H7.62676ZM5.97577 8.12573C7.12722 8.12573 7.84391 7.36289 7.84391 6.40956C7.82245 5.43478 7.12723 4.69311 5.99761 4.69311C4.86811 4.69311 4.12961 5.43478 4.12961 6.40956C4.12961 7.36289 4.84615 8.12573 5.95425 8.12573H5.97577ZM12.7559 19.4163H9.45393C9.45393 19.4163 9.49735 10.4142 9.45402 9.48208H12.7559V10.8886C12.7485 10.9001 12.7411 10.9115 12.7339 10.9228H12.7559V10.8886C13.1948 10.2117 13.9801 9.24896 15.7317 9.24896C17.9041 9.24896 19.5331 10.6688 19.5331 13.7202V19.4163H16.2315V14.1017C16.2315 12.7662 15.7535 11.8552 14.5587 11.8552C13.6465 11.8552 13.1032 12.4696 12.8645 13.0629C12.7773 13.2751 12.7559 13.5717 12.7559 13.8686V19.4163Z" fill="currentColor"/>
</svg>
