<svg width="24" height="24" viewBox="0 0 24 24" fill="none" xmlns="http://www.w3.org/2000/svg">
<path fill-rule="evenodd" clip-rule="evenodd" d="M20.6076 4.47114C21.5499 4.72493 22.293 5.46781 22.5466 6.41027C23.0179 8.1317 22.9998 11.7199 22.9998 11.7199C22.9998 11.7199 22.9998 15.2898 22.5468 17.0114C22.293 17.9537 21.5501 18.6968 20.6076 18.9504C18.886 19.4036 11.9998 19.4036 11.9998 19.4036C11.9998 19.4036 5.13157 19.4036 3.39202 18.9324C2.44956 18.6786 1.70668 17.9356 1.45289 16.9933C0.999878 15.2898 0.999878 11.7018 0.999878 11.7018C0.999878 11.7018 0.999878 8.1317 1.45289 6.41027C1.70651 5.46798 2.46769 4.7068 3.39185 4.45318C5.11345 4 11.9997 4 11.9997 4C11.9997 4 18.886 4 20.6076 4.47114ZM15.5335 11.7018L9.80705 15V8.40359L15.5335 11.7018Z" fill="currentColor"/>
</svg>
