<svg width="40" height="40" viewBox="0 0 40 40" fill="none" xmlns="http://www.w3.org/2000/svg">
<rect width="40" height="40" rx="8" fill="#EAF0F4"/>
<path fill-rule="evenodd" clip-rule="evenodd" d="M28.6076 12.4711C29.5499 12.7249 30.293 13.4678 30.5466 14.4103C31.0179 16.1317 30.9998 19.7199 30.9998 19.7199C30.9998 19.7199 30.9998 23.2898 30.5468 25.0114C30.293 25.9537 29.5501 26.6968 28.6076 26.9504C26.886 27.4036 19.9998 27.4036 19.9998 27.4036C19.9998 27.4036 13.1316 27.4036 11.392 26.9324C10.4496 26.6786 9.70668 25.9356 9.45289 24.9933C8.99988 23.2898 8.99988 19.7018 8.99988 19.7018C8.99988 19.7018 8.99988 16.1317 9.45289 14.4103C9.70651 13.468 10.4677 12.7068 11.3919 12.4532C13.1134 12 19.9997 12 19.9997 12C19.9997 12 26.886 12 28.6076 12.4711ZM23.5335 19.7018L17.8071 23V16.4036L23.5335 19.7018Z" fill="#777E87"/>
</svg>
