<svg fill="none" height="353" viewBox="0 0 342 353" width="342" xmlns="http://www.w3.org/2000/svg" xmlns:xlink="http://www.w3.org/1999/xlink"><filter id="a" color-interpolation-filters="sRGB" filterUnits="userSpaceOnUse" height="89.375" width="279" x="31.3574" y=".044434"><feFlood flood-opacity="0" result="BackgroundImageFix"/><feBlend in="SourceGraphic" in2="BackgroundImageFix" mode="normal" result="shape"/><feGaussianBlur result="effect1_foregroundBlur_2440_9317" stdDeviation="18.5"/></filter><filter id="b" color-interpolation-filters="sRGB" filterUnits="userSpaceOnUse" height="222.123" width="59.4355" x="282.18" y="72.1411"><feFlood flood-opacity="0" result="BackgroundImageFix"/><feBlend in="SourceGraphic" in2="BackgroundImageFix" mode="normal" result="shape"/><feGaussianBlur result="effect1_foregroundBlur_2440_9317" stdDeviation="13"/></filter><filter id="c" color-interpolation-filters="sRGB" filterUnits="userSpaceOnUse" height="222.123" width="55.9355" x=".099609" y="72.1406"><feFlood flood-opacity="0" result="BackgroundImageFix"/><feBlend in="SourceGraphic" in2="BackgroundImageFix" mode="normal" result="shape"/><feGaussianBlur result="effect1_foregroundBlur_2440_9317" stdDeviation="13"/></filter><filter id="d" color-interpolation-filters="sRGB" filterUnits="userSpaceOnUse" height="89.3545" width="39.9355" x="8.09961" y="67.896"><feFlood flood-opacity="0" result="BackgroundImageFix"/><feBlend in="SourceGraphic" in2="BackgroundImageFix" mode="normal" result="shape"/><feGaussianBlur result="effect1_foregroundBlur_2440_9317" stdDeviation="9"/></filter><filter id="e" color-interpolation-filters="sRGB" filterUnits="userSpaceOnUse" height="72.1758" width="45.498" x="287.18" y="68.832"><feFlood flood-opacity="0" result="BackgroundImageFix"/><feBlend in="SourceGraphic" in2="BackgroundImageFix" mode="normal" result="shape"/><feGaussianBlur result="effect1_foregroundBlur_2440_9317" stdDeviation="10.5"/></filter><filter id="f" color-interpolation-filters="sRGB" filterUnits="userSpaceOnUse" height="299.455" width="275.6" x="38.0566" y="53.1313"><feFlood flood-opacity="0" result="BackgroundImageFix"/><feColorMatrix in="SourceAlpha" result="hardAlpha" type="matrix" values="0 0 0 0 0 0 0 0 0 0 0 0 0 0 0 0 0 0 127 0"/><feOffset dx="5" dy="19"/><feGaussianBlur stdDeviation="32"/><feComposite in2="hardAlpha" operator="out"/><feColorMatrix type="matrix" values="0 0 0 0 0 0 0 0 0 0.666667 0 0 0 0 0.721569 0 0 0 0.8 0"/><feBlend in2="BackgroundImageFix" mode="normal" result="effect1_dropShadow_2440_9317"/><feBlend in="SourceGraphic" in2="effect1_dropShadow_2440_9317" mode="normal" result="shape"/><feColorMatrix in="SourceAlpha" result="hardAlpha" type="matrix" values="0 0 0 0 0 0 0 0 0 0 0 0 0 0 0 0 0 0 127 0"/><feOffset dx="2" dy="2"/><feGaussianBlur stdDeviation="3"/><feComposite in2="hardAlpha" k2="-1" k3="1" operator="arithmetic"/><feColorMatrix type="matrix" values="0 0 0 0 0.415686 0 0 0 0 0.827451 0 0 0 0 0.862745 0 0 0 0.8 0"/><feBlend in2="shape" mode="normal" result="effect2_innerShadow_2440_9317"/></filter><linearGradient id="g" gradientUnits="userSpaceOnUse" x1="170.857" x2="170.857" y1="19.8584" y2="347.858"><stop offset="0" stop-color="#d4fdff"/><stop offset="1" stop-color="#6ad3dc"/></linearGradient><linearGradient id="h" gradientUnits="userSpaceOnUse" x1="170.857" x2="170.857" y1="98.1313" y2="269.586"><stop offset="0" stop-color="#fff"/><stop offset="1" stop-color="#d4fdff"/></linearGradient><path d="m6.85742 173.8c0-53.885 0-80.827 10.48658-101.4082 9.2243-18.1037 23.9431-32.8225 42.0468-42.0468 20.5812-10.4866 47.5232-10.4866 101.4082-10.4866h20.117c53.885 0 80.827 0 101.408 10.4866 18.104 9.2243 32.823 23.9431 42.047 42.0468 10.486 20.5812 10.486 47.5232 10.486 101.4082v20.117c0 53.885 0 80.827-10.486 101.408-9.224 18.104-23.943 32.822-42.047 42.047-20.581 10.486-47.523 10.486-101.408 10.486h-20.117c-53.885 0-80.827 0-101.4082-10.486-18.1037-9.225-32.8225-23.943-42.0468-42.047-10.48658-20.581-10.48658-47.523-10.48658-101.408z" fill="url(#g)"/><g filter="url(#a)"><rect fill="#fff" height="15.375" rx="7.6875" width="205" x="68.3574" y="37.0444"/></g><g filter="url(#b)"><rect fill="#fff" height="7.43467" rx="3.71733" transform="matrix(0 -1 1 0 39.916 576.444)" width="170.123" x="308.18" y="268.264"/></g><g filter="url(#c)"><rect fill="#fff" height="3.936" rx="1.968" transform="matrix(0 -1 1 0 -242.1634 294.3626)" width="170.123" x="26.0996" y="268.263"/></g><g filter="url(#d)"><rect fill="#fff" height="3.936" rx="1.968" transform="matrix(0 -1 1 0 -113.1504 165.3496)" width="53.3547" x="26.0996" y="139.25"/></g><g filter="url(#e)"><rect fill="#fff" height="3.49867" rx="1.74933" transform="matrix(0 -1 1 0 188.172 428.188)" width="30.176" x="308.18" y="120.008"/></g><g filter="url(#f)"><path clip-rule="evenodd" d="m211.809 252.446c10.858-10.975 16.957-25.859 16.957-41.38.008-8.275-1.726-16.457-5.086-24.003s-8.269-14.284-14.402-19.766c-1.262-1.12-2.58-2.218-3.941-3.246-6.96-5.234-15-8.81-23.52-10.462-3.619-.705-7.296-1.059-10.981-1.056-.793 0-1.578-.014-2.357-.057-2.899-.119-5.784-.479-8.625-1.077-1.826-.377-3.63-.85-5.407-1.418-10.87-3.519-20.353-10.437-27.082-19.755-6.729-9.319-10.356-20.558-10.358-32.0947h-19.9504c-.0051 12.6927 3.1974 25.1767 9.3044 36.2677 6.107 11.092 14.915 20.422 25.59 27.107 1.438.915 2.91 1.765 4.418 2.566 7.345 3.931 15.299 6.568 23.52 7.797 3.635.551 7.306.825 10.982.822.792 0 1.578.022 2.356.078 2.925.177 5.82.698 8.625 1.553 1.471.449 2.914.989 4.32 1.616 6.737 3.001 12.465 7.918 16.487 14.151s6.163 13.514 6.164 20.956c0 10.174-3.999 19.931-11.116 27.125-7.118 7.194-16.771 11.236-26.836 11.236-4.984 0-9.919-.992-14.523-2.92s-8.787-4.754-12.311-8.316c-3.523-3.562-6.318-7.791-8.225-12.445-1.906-4.654-2.887-9.643-2.886-14.68-.001-7.441 2.139-14.722 6.159-20.955 4.021-6.234 9.748-11.151 16.484-14.152-8.12-1.618-15.932-4.538-23.141-8.648-6.127 5.486-11.031 12.226-14.384 19.774-3.354 7.547-5.082 15.729-5.069 24.002 0 15.521 6.1 30.405 16.957 41.38 10.858 10.974 25.584 17.14 40.939 17.14s30.081-6.166 40.938-17.14zm23.554-118.055c6.102-11.09 9.301-23.57 9.294-36.2597h-19.972c0 11.5347-3.624 22.7707-10.349 32.0897-6.725 9.318-16.204 16.237-27.07 19.76 8.209 2.241 15.875 6.161 22.524 11.518 10.669-6.688 19.471-16.019 25.573-27.108zm-25.496-36.2597c-.004 8.5227-2.739 16.8137-7.795 23.6337-5.057 6.82-12.163 11.8-20.255 14.196v12.794c-2.85-.51-5.732-.818-8.625-.922-.778-.035-1.564-.049-2.356-.049-3.696.001-7.379-.417-10.982-1.248v-10.575c-8.092-2.396-15.198-7.376-20.254-14.196-5.057-6.82-7.792-15.111-7.796-23.6337h20.336c-.002 2.9737.692 5.9057 2.027 8.5557s3.272 4.943 5.652 6.691c3.187 2.355 7.034 3.622 10.982 3.615 3.966.03 7.838-1.221 11.051-3.573 2.388-1.744 4.332-4.036 5.673-6.688s2.041-5.587 2.041-8.5652zm-28.015 144.6477v-63.439c-3.528-1.256-7.241-1.898-10.981-1.9-.786 0-1.571-.014-2.357-.042-2.886-.067-5.766-.304-8.625-.709v66.09c3.529 1.248 7.242 1.884 10.982 1.878 3.739.006 7.452-.63 10.981-1.878z" fill="url(#h)" fill-rule="evenodd"/></g></svg>