<svg width="765" height="774" viewBox="0 0 765 774" fill="none" xmlns="http://www.w3.org/2000/svg">
<path d="M21.2617 543H32.2817V526.006C32.2817 522.526 34.2537 520.67 36.9217 520.67C39.5897 520.67 41.3877 522.526 41.3877 526.006V543H52.3497V522.468C52.3497 515.334 48.3477 510.926 41.6777 510.926C37.2117 510.926 34.3117 513.304 32.2817 515.914V500.66H21.2617V543Z" fill="#F7FAFD"/>
<path d="M74.0295 543.754C84.1215 543.754 91.4295 536.272 91.4295 527.34V527.224C91.4295 518.292 84.1795 510.926 74.1455 510.926C64.1115 510.926 56.8035 518.408 56.8035 527.34V527.456C56.8035 536.388 64.0535 543.754 74.0295 543.754ZM74.1455 534.416C70.2595 534.416 67.4755 531.168 67.4755 527.34V527.224C67.4755 523.396 70.0275 520.206 74.0295 520.206C77.9155 520.206 80.7575 523.454 80.7575 527.34V527.456C80.7575 531.226 78.1475 534.416 74.1455 534.416Z" fill="#F7FAFD"/>
<path d="M112.092 543.754C122.184 543.754 129.492 536.272 129.492 527.34V527.224C129.492 518.292 122.242 510.926 112.208 510.926C102.174 510.926 94.866 518.408 94.866 527.34V527.456C94.866 536.388 102.116 543.754 112.092 543.754ZM112.208 534.416C108.322 534.416 105.538 531.168 105.538 527.34V527.224C105.538 523.396 108.09 520.206 112.092 520.206C115.978 520.206 118.82 523.454 118.82 527.34V527.456C118.82 531.226 116.21 534.416 112.208 534.416Z" fill="#F7FAFD"/>
<path d="M134.146 552.28H145.166V539.172C147.196 541.55 149.98 543.696 154.736 543.696C162.16 543.696 168.598 537.49 168.598 527.282V527.166C168.598 517.132 162.16 510.926 154.678 510.926C149.98 510.926 147.312 513.188 145.166 515.798V511.622H134.146V552.28ZM151.372 534.474C147.776 534.474 144.934 531.516 144.934 527.34V527.224C144.934 523.048 147.776 520.09 151.372 520.09C154.91 520.09 157.81 523.048 157.81 527.224V527.34C157.81 531.574 154.91 534.474 151.372 534.474Z" fill="#F7FAFD"/>
<path d="M172.298 543H204.43V533.836H187.668L194.628 528.964C200.66 524.614 204.024 521.25 204.024 514.754V514.638C204.024 506.982 197.934 501.704 189.06 501.704C181.23 501.704 176.88 504.778 172.53 510.404L180.128 516.726C183.318 513.072 185.464 511.448 188.19 511.448C190.974 511.448 192.772 513.014 192.772 515.624C192.772 518.06 191.264 519.974 187.494 522.932L172.298 534.532V543Z" fill="#F7FAFD"/>
<path d="M228.058 543H238.904V535.112H244.066V526.702H238.904V502.11H227.594L206.54 527.166L208.338 535.112H228.058V543ZM218.314 526.76L228.058 515.044V526.76H218.314Z" fill="#F7FAFD"/>
<path d="M247.556 543H259.968L277.89 510.868V502.4H246.628V511.854H265.42L247.556 543Z" fill="#F7FAFD"/>
<path d="M276.362 543H287.788V531.69H276.362V543Z" fill="#F7FAFD"/>
<path d="M307.313 543.754C314.157 543.754 318.333 540.854 321.233 536.562L313.867 531.226C312.185 533.256 310.503 534.474 307.835 534.474C304.123 534.474 301.571 531.4 301.571 527.34V527.224C301.571 523.396 304.181 520.206 307.777 520.206C310.387 520.206 312.069 521.482 313.635 523.512L321.059 517.944C318.391 513.768 314.099 510.984 307.661 510.984C297.743 510.984 290.899 518.466 290.899 527.34V527.456C290.899 536.33 297.801 543.754 307.313 543.754Z" fill="#F7FAFD"/>
<path d="M340.297 543.754C350.389 543.754 357.697 536.272 357.697 527.34V527.224C357.697 518.292 350.447 510.926 340.413 510.926C330.379 510.926 323.071 518.408 323.071 527.34V527.456C323.071 536.388 330.321 543.754 340.297 543.754ZM340.413 534.416C336.527 534.416 333.743 531.168 333.743 527.34V527.224C333.743 523.396 336.295 520.206 340.297 520.206C344.183 520.206 347.025 523.454 347.025 527.34V527.456C347.025 531.226 344.415 534.416 340.413 534.416Z" fill="#F7FAFD"/>
<path d="M362.352 543H373.372V525.948C373.372 522.526 375.228 520.67 377.838 520.67C380.448 520.67 382.188 522.526 382.188 525.948V543H393.15V525.948C393.15 522.526 395.064 520.67 397.674 520.67C400.284 520.67 401.966 522.526 401.966 525.948V543H412.986V522.41C412.986 515.102 408.926 510.926 402.256 510.926C397.674 510.926 394.484 512.898 391.758 516.03C390.076 512.782 386.886 510.926 382.71 510.926C378.302 510.926 375.402 513.304 373.372 515.914V511.622H362.352V543Z" fill="#F7FAFD"/>
<g filter="url(#filter0_dd_2445_9319)">
<path d="M39.8429 291.588C25.8966 239.54 18.9234 213.516 23.7259 190.922C27.9504 171.048 38.3581 153.021 53.4575 139.425C70.6232 123.969 96.6475 116.996 148.696 103.05L168.128 97.8429C220.176 83.8965 246.2 76.9234 268.794 81.7259C288.669 85.9503 306.695 96.358 320.291 111.457C335.747 128.623 342.72 154.647 356.667 206.696L361.873 226.128C375.82 278.176 382.793 304.2 377.99 326.794C373.766 346.669 363.358 364.695 348.259 378.291C331.093 393.747 305.069 400.72 253.02 414.667L233.589 419.873C181.54 433.82 155.516 440.793 132.922 435.99C113.048 431.766 95.0209 421.358 81.4253 406.259C65.9692 389.093 58.996 363.069 45.0497 311.02L39.8429 291.588Z" fill="url(#paint0_linear_2445_9319)"/>
<g filter="url(#filter1_f_2445_9319)">
<rect x="63.8516" y="143.576" width="205" height="15.375" rx="7.6875" transform="rotate(-15 63.8516 143.576)" fill="white"/>
</g>
<g filter="url(#filter2_f_2445_9319)">
<rect x="355.348" y="304.846" width="170.123" height="7.43467" rx="3.71733" transform="rotate(-105 355.348 304.846)" fill="white"/>
</g>
<g filter="url(#filter3_f_2445_9319)">
<rect x="82.8789" y="377.853" width="170.123" height="3.936" rx="1.968" transform="rotate(-105 82.8789 377.853)" fill="white"/>
</g>
<g filter="url(#filter4_f_2445_9319)">
<rect x="49.4883" y="253.236" width="53.3547" height="3.936" rx="1.968" transform="rotate(-105 49.4883 253.236)" fill="white"/>
</g>
<g filter="url(#filter5_f_2445_9319)">
<rect x="316.975" y="161.642" width="30.176" height="3.49867" rx="1.74933" transform="rotate(-105 316.975 161.642)" fill="white"/>
</g>
</g>
<g filter="url(#filter6_di_2445_9319)">
<path fill-rule="evenodd" clip-rule="evenodd" d="M258.167 314.509C265.814 301.098 267.853 285.142 263.836 270.151C261.702 262.156 257.91 254.701 252.711 248.282C247.513 241.862 241.027 236.625 233.684 232.917C232.175 232.162 230.617 231.442 229.037 230.801C220.96 227.547 212.268 226.173 203.611 226.783C199.933 227.039 196.289 227.649 192.73 228.605C191.964 228.81 191.202 229 190.439 229.16C187.608 229.796 184.728 230.194 181.829 230.352C179.968 230.461 178.102 230.471 176.24 230.382C164.829 229.796 153.878 225.569 144.967 218.309C136.055 211.05 129.643 201.133 126.656 189.989L107.385 195.153C110.665 207.415 116.99 218.644 125.759 227.777C134.528 236.91 145.451 243.642 157.493 247.337C159.118 247.848 160.761 248.289 162.424 248.672C170.536 250.568 178.902 251.056 187.161 250.116C190.815 249.707 194.432 249.022 197.981 248.068C198.747 247.863 199.511 247.68 200.277 247.533C203.148 246.947 206.079 246.701 209.011 246.8C210.548 246.854 212.081 247.002 213.601 247.243C220.886 248.398 227.691 251.665 233.189 256.645C238.687 261.625 242.64 268.104 244.567 275.292C247.2 285.119 245.863 295.579 240.85 304.37C235.837 313.161 227.559 319.563 217.836 322.168C213.023 323.458 207.999 323.777 203.053 323.106C198.107 322.436 193.335 320.789 189.009 318.26C184.684 315.731 180.889 312.37 177.843 308.368C174.797 304.366 172.559 299.801 171.256 294.936C169.329 287.748 169.512 280.162 171.782 273.1C174.052 266.038 178.311 259.806 184.041 255.164C175.779 255.703 167.477 254.905 159.45 252.8C154.952 259.685 151.96 267.465 150.674 275.623C149.388 283.781 149.837 292.131 151.991 300.12C156.008 315.111 165.752 327.91 179.08 335.7C192.408 343.491 208.228 345.635 223.059 341.661C237.891 337.687 250.519 327.92 258.167 314.509ZM250.363 194.38C253.387 182.09 253.246 169.206 249.955 156.951L230.664 162.12C233.649 173.262 233.057 185.053 228.973 195.795C224.889 206.536 217.524 215.673 207.94 221.888C216.449 221.928 224.869 223.731 232.678 227.184C241.252 217.962 247.339 206.671 250.363 194.38ZM216.352 165.955C218.554 174.188 218.058 182.905 214.938 190.801C211.819 198.697 206.244 205.347 199.048 209.755L202.36 222.114C199.474 222.359 196.611 222.808 193.79 223.456C193.029 223.623 192.266 223.813 191.501 224.018C187.932 224.976 184.265 225.525 180.57 225.655L177.833 215.44C169.397 215.22 161.244 212.249 154.595 206.97C147.946 201.692 143.158 194.391 140.948 186.16L160.591 180.896C161.359 183.769 162.789 186.421 164.764 188.636C166.739 190.85 169.203 192.564 171.955 193.636C175.642 195.086 179.686 195.314 183.498 194.285C187.337 193.288 190.753 191.077 193.248 187.974C195.103 185.671 196.388 182.954 196.997 180.045C197.606 177.137 197.522 174.12 196.751 171.244L216.352 165.955ZM226.729 312.925L210.309 251.648C206.577 251.348 202.824 251.688 199.21 252.655C198.452 252.858 197.689 253.048 196.923 253.224C194.118 253.906 191.275 254.423 188.408 254.772L205.514 318.609C209.246 318.902 212.997 318.554 216.607 317.581C220.221 316.619 223.643 315.044 226.729 312.925Z" fill="url(#paint1_linear_2445_9319)"/>
</g>
<defs>
<filter id="filter0_dd_2445_9319" x="14.2129" y="0.213379" width="781.289" height="773.29" filterUnits="userSpaceOnUse" color-interpolation-filters="sRGB">
<feFlood flood-opacity="0" result="BackgroundImageFix"/>
<feColorMatrix in="SourceAlpha" type="matrix" values="0 0 0 0 0 0 0 0 0 0 0 0 0 0 0 0 0 0 127 0" result="hardAlpha"/>
<feOffset dx="64" dy="64"/>
<feGaussianBlur stdDeviation="36"/>
<feColorMatrix type="matrix" values="0 0 0 0 0.415686 0 0 0 0 0.827451 0 0 0 0 0.862745 0 0 0 1 0"/>
<feBlend mode="normal" in2="BackgroundImageFix" result="effect1_dropShadow_2445_9319"/>
<feColorMatrix in="SourceAlpha" type="matrix" values="0 0 0 0 0 0 0 0 0 0 0 0 0 0 0 0 0 0 127 0" result="hardAlpha"/>
<feOffset dx="208" dy="128"/>
<feGaussianBlur stdDeviation="104"/>
<feColorMatrix type="matrix" values="0 0 0 0 0.415686 0 0 0 0 0.827451 0 0 0 0 0.862745 0 0 0 1 0"/>
<feBlend mode="normal" in2="effect1_dropShadow_2445_9319" result="effect2_dropShadow_2445_9319"/>
<feBlend mode="normal" in="SourceGraphic" in2="effect2_dropShadow_2445_9319" result="shape"/>
</filter>
<filter id="filter1_f_2445_9319" x="28.5781" y="55.2437" width="272.541" height="138.458" filterUnits="userSpaceOnUse" color-interpolation-filters="sRGB">
<feFlood flood-opacity="0" result="BackgroundImageFix"/>
<feBlend mode="normal" in="SourceGraphic" in2="BackgroundImageFix" result="shape"/>
<feGaussianBlur stdDeviation="18.5" result="effect1_foregroundBlur_2445_9319"/>
</filter>
<filter id="filter2_f_2445_9319" x="286.15" y="113.43" width="101.545" height="216.581" filterUnits="userSpaceOnUse" color-interpolation-filters="sRGB">
<feFlood flood-opacity="0" result="BackgroundImageFix"/>
<feBlend mode="normal" in="SourceGraphic" in2="BackgroundImageFix" result="shape"/>
<feGaussianBlur stdDeviation="13" result="effect1_foregroundBlur_2445_9319"/>
</filter>
<filter id="filter3_f_2445_9319" x="13.2891" y="186.95" width="98.9492" height="216.461" filterUnits="userSpaceOnUse" color-interpolation-filters="sRGB">
<feFlood flood-opacity="0" result="BackgroundImageFix"/>
<feBlend mode="normal" in="SourceGraphic" in2="BackgroundImageFix" result="shape"/>
<feGaussianBlur stdDeviation="13" result="effect1_foregroundBlur_2445_9319"/>
</filter>
<filter id="filter4_f_2445_9319" x="18.1211" y="183.122" width="52.7266" height="87.6719" filterUnits="userSpaceOnUse" color-interpolation-filters="sRGB">
<feFlood flood-opacity="0" result="BackgroundImageFix"/>
<feBlend mode="normal" in="SourceGraphic" in2="BackgroundImageFix" result="shape"/>
<feGaussianBlur stdDeviation="9" result="effect1_foregroundBlur_2445_9319"/>
</filter>
<filter id="filter5_f_2445_9319" x="288.557" y="110.981" width="52.4043" height="71.2681" filterUnits="userSpaceOnUse" color-interpolation-filters="sRGB">
<feFlood flood-opacity="0" result="BackgroundImageFix"/>
<feBlend mode="normal" in="SourceGraphic" in2="BackgroundImageFix" result="shape"/>
<feGaussianBlur stdDeviation="10.5" result="effect1_foregroundBlur_2445_9319"/>
</filter>
<filter id="filter6_di_2445_9319" x="48.3848" y="111.951" width="286.467" height="314.662" filterUnits="userSpaceOnUse" color-interpolation-filters="sRGB">
<feFlood flood-opacity="0" result="BackgroundImageFix"/>
<feColorMatrix in="SourceAlpha" type="matrix" values="0 0 0 0 0 0 0 0 0 0 0 0 0 0 0 0 0 0 127 0" result="hardAlpha"/>
<feOffset dx="5" dy="19"/>
<feGaussianBlur stdDeviation="32"/>
<feComposite in2="hardAlpha" operator="out"/>
<feColorMatrix type="matrix" values="0 0 0 0 0 0 0 0 0 0.666667 0 0 0 0 0.721569 0 0 0 0.8 0"/>
<feBlend mode="normal" in2="BackgroundImageFix" result="effect1_dropShadow_2445_9319"/>
<feBlend mode="normal" in="SourceGraphic" in2="effect1_dropShadow_2445_9319" result="shape"/>
<feColorMatrix in="SourceAlpha" type="matrix" values="0 0 0 0 0 0 0 0 0 0 0 0 0 0 0 0 0 0 127 0" result="hardAlpha"/>
<feOffset dx="2" dy="2"/>
<feGaussianBlur stdDeviation="3"/>
<feComposite in2="hardAlpha" operator="arithmetic" k2="-1" k3="1"/>
<feColorMatrix type="matrix" values="0 0 0 0 0.415686 0 0 0 0 0.827451 0 0 0 0 0.862745 0 0 0 0.8 0"/>
<feBlend mode="normal" in2="shape" result="effect2_innerShadow_2445_9319"/>
</filter>
<linearGradient id="paint0_linear_2445_9319" x1="158.412" y1="100.446" x2="243.304" y2="417.27" gradientUnits="userSpaceOnUse">
<stop stop-color="#D4FDFF"/>
<stop offset="1" stop-color="#6AD3DC"/>
</linearGradient>
<linearGradient id="paint1_linear_2445_9319" x1="178.67" y1="176.052" x2="223.046" y2="341.664" gradientUnits="userSpaceOnUse">
<stop stop-color="white"/>
<stop offset="1" stop-color="#D4FDFF"/>
</linearGradient>
</defs>
</svg>
