<svg width="261" height="20" viewBox="0 0 261 20" fill="none" xmlns="http://www.w3.org/2000/svg">
<path d="M30.3048 16.4328C33.2471 16.4328 35.3126 14.9129 35.3126 12.2044V12.1655C35.3126 9.78823 33.7537 8.79447 30.9868 8.0735C28.629 7.46945 28.0445 7.17717 28.0445 6.28083V6.24186C28.0445 5.57935 28.6485 5.05324 29.7982 5.05324C30.9478 5.05324 32.1364 5.55986 33.3445 6.39774L34.9034 4.13741C33.5199 3.02674 31.8247 2.4032 29.8371 2.4032C27.0507 2.4032 25.0632 4.03999 25.0632 6.51466V6.55363C25.0632 9.26212 26.8364 10.0221 29.5838 10.7235C31.8636 11.3081 32.3313 11.6978 32.3313 12.4578V12.4967C32.3313 13.2956 31.5908 13.7828 30.3633 13.7828C28.8044 13.7828 27.5184 13.1398 26.2908 12.1265L24.5176 14.2504C26.1544 15.7119 28.2393 16.4328 30.3048 16.4328Z" fill="#2FA957"/>
<path d="M43.6066 16.4523C47.2699 16.4523 49.5887 14.4258 49.5887 10.2949V2.59805H46.5879V10.4118C46.5879 12.5747 45.4772 13.6854 43.6456 13.6854C41.8139 13.6854 40.7033 12.5357 40.7033 10.3143V2.59805H37.7025V10.3923C37.7025 14.4063 39.9433 16.4523 43.6066 16.4523Z" fill="#2FA957"/>
<path d="M57.4971 16.4328C60.4394 16.4328 62.5049 14.9129 62.5049 12.2044V12.1655C62.5049 9.78823 60.946 8.79447 58.1791 8.0735C55.8213 7.46945 55.2368 7.17717 55.2368 6.28083V6.24186C55.2368 5.57935 55.8408 5.05324 56.9905 5.05324C58.1401 5.05324 59.3287 5.55986 60.5368 6.39774L62.0957 4.13741C60.7122 3.02674 59.017 2.4032 57.0294 2.4032C54.243 2.4032 52.2555 4.03999 52.2555 6.51466V6.55363C52.2555 9.26212 54.0286 10.0221 56.7761 10.7235C59.0559 11.3081 59.5236 11.6978 59.5236 12.4578V12.4967C59.5236 13.2956 58.7831 13.7828 57.5555 13.7828C55.9967 13.7828 54.7106 13.1398 53.4831 12.1265L51.7099 14.2504C53.3467 15.7119 55.4316 16.4328 57.4971 16.4328Z" fill="#2FA957"/>
<path d="M67.9998 16.238H71.0006V5.36501H75.151V2.59805H63.8494V5.36501H67.9998V16.238Z" fill="#2FA957"/>
<path d="M74.5391 16.238H77.5983L78.8454 13.1787H84.6131L85.8602 16.238H88.9974L83.1517 2.50063H80.3847L74.5391 16.238ZM79.9171 10.5287L81.7292 6.10546L83.5414 10.5287H79.9171Z" fill="#2FA957"/>
<path d="M91.239 16.238H94.2397V2.59805H91.239V16.238Z" fill="#2FA957"/>
<path d="M97.6485 16.238H100.61V7.56688L107.216 16.238H109.769V2.59805H106.807V10.9963L100.415 2.59805H97.6485V16.238Z" fill="#2FA957"/>
<path d="M111.874 16.238H114.933L116.18 13.1787H121.948L123.195 16.238H126.332L120.486 2.50063H117.719L111.874 16.238ZM117.252 10.5287L119.064 6.10546L120.876 10.5287H117.252Z" fill="#2FA957"/>
<path d="M128.437 16.238H134.926C138.005 16.238 140.031 14.9909 140.031 12.4967V12.4578C140.031 10.6261 139.057 9.71029 137.479 9.10624C138.453 8.56064 139.271 7.70328 139.271 6.16392V6.12494C139.271 5.18964 138.959 4.4297 138.336 3.80616C137.557 3.02674 136.329 2.59805 134.77 2.59805H128.437V16.238ZM136.29 6.67054C136.29 7.68379 135.452 8.11247 134.127 8.11247H131.36V5.22861H134.322C135.588 5.22861 136.29 5.73523 136.29 6.63157V6.67054ZM137.05 12.0875V12.1265C137.05 13.1398 136.251 13.6074 134.926 13.6074H131.36V10.6066H134.829C136.368 10.6066 137.05 11.1717 137.05 12.0875Z" fill="#2FA957"/>
<path d="M142.5 16.238H152.301V13.51H145.5V2.59805H142.5V16.238Z" fill="#2FA957"/>
<path d="M154.564 16.238H164.95V13.5684H157.545V10.7041H163.975V8.03453H157.545V5.26758H164.852V2.59805H154.564V16.238Z" fill="#2FA957"/>
<path d="M174.052 16.2381H175.591V10.1002H183.463V16.2381H185.003V2.59821H183.463V8.65822H175.591V2.59821H174.052V16.2381Z" fill="#2FA957"/>
<path d="M193.124 16.2381H194.682V10.8211L200.353 2.59821H198.56L193.922 9.41816L189.324 2.59821H187.453L193.124 10.8406V16.2381Z" fill="#2FA957"/>
<path d="M207.976 16.4719C210.276 16.4719 212.185 15.5171 213.452 14.387V8.95051H207.821V10.334H211.971V13.7245C211.036 14.4844 209.594 15.0885 208.035 15.0885C204.722 15.0885 202.637 12.6723 202.637 9.41816V9.37919C202.637 6.33944 204.8 3.78683 207.821 3.78683C209.75 3.78683 210.919 4.42985 211.971 5.34567L212.965 4.17654C211.601 3.02689 210.178 2.36438 207.879 2.36438C203.787 2.36438 201.04 5.67693 201.04 9.41816V9.45713C201.04 13.3542 203.69 16.4719 207.976 16.4719Z" fill="#2FA957"/>
<path d="M217.06 16.2381H218.6V2.59821H217.06V16.2381Z" fill="#2FA957"/>
<path d="M222.594 16.2381H232.552V14.8352H224.134V10.0612H231.577V8.65822H224.134V4.00117H232.454V2.59821H222.594V16.2381Z" fill="#2FA957"/>
<path d="M235.648 16.2381H237.149V5.05339L245.956 16.2381H247.184V2.59821H245.683V13.5296L237.09 2.59821H235.648V16.2381Z" fill="#2FA957"/>
<path d="M251.043 16.2381H261V14.8352H252.582V10.0612H260.026V8.65822H252.582V4.00117H260.902V2.59821H251.043V16.2381Z" fill="#2FA957"/>
<path fill-rule="evenodd" clip-rule="evenodd" d="M13.4659 17.5376C14.74 16.2904 15.4558 14.5988 15.4558 12.8349C15.4567 11.8945 15.2533 10.9646 14.859 10.107C14.4647 9.24934 13.8886 8.48363 13.169 7.86061C13.0208 7.73334 12.8661 7.60847 12.7065 7.49167C11.8897 6.89684 10.9462 6.49039 9.94647 6.30267C9.5218 6.22256 9.09028 6.18237 8.65779 6.18264C8.56481 6.18264 8.47264 6.18103 8.3813 6.1762C8.04104 6.16267 7.70251 6.12171 7.36912 6.05375C7.1549 6.01096 6.94312 5.95718 6.73466 5.89264C5.45907 5.49273 4.34621 4.70655 3.55657 3.64747C2.76693 2.58839 2.34134 1.31117 2.34117 0H7.20023e-07C-0.000600424 1.44255 0.375228 2.86133 1.09185 4.12182C1.80846 5.38231 2.84211 6.44271 4.09478 7.20247C4.26348 7.30639 4.43629 7.40306 4.61321 7.49408C5.47509 7.94085 6.40847 8.24052 7.37324 8.38019C7.79981 8.44277 8.23057 8.474 8.66191 8.47364C8.7549 8.47364 8.84706 8.47606 8.93841 8.4825C9.28166 8.50257 9.62135 8.56178 9.95058 8.65892C10.1232 8.71002 10.2925 8.77135 10.4575 8.84259C11.2481 9.18366 11.9203 9.74244 12.3922 10.4509C12.8641 11.1593 13.1154 11.9868 13.1155 12.8325C13.1155 13.9888 12.6463 15.0977 11.8111 15.9153C10.9759 16.7328 9.84307 17.1922 8.66191 17.1922C8.0771 17.1922 7.49801 17.0794 6.95773 16.8603C6.41744 16.6412 5.92654 16.32 5.51305 15.9152C5.09957 15.5104 4.7716 15.0297 4.54787 14.5008C4.32415 13.9719 4.20906 13.405 4.20916 12.8325C4.20904 11.9868 4.46017 11.1594 4.93196 10.4509C5.40375 9.74251 6.07583 9.1837 6.86633 8.84259C5.91343 8.65871 4.99667 8.32693 4.15074 7.85981C3.43171 8.48328 2.85633 9.24929 2.46277 10.107C2.06922 10.9648 1.86647 11.8946 1.868 12.8349C1.868 14.5988 2.58378 16.2904 3.85789 17.5376C5.13199 18.7849 6.86005 19.4856 8.66191 19.4856C10.4638 19.4856 12.1918 18.7849 13.4659 17.5376ZM16.2299 4.12084C16.9459 2.86053 17.3213 1.44211 17.3205 0H14.9769C14.9769 1.31086 14.5516 2.58787 13.7625 3.64691C12.9733 4.70595 11.861 5.49231 10.5859 5.89264C11.5491 6.14735 12.4487 6.59289 13.229 7.20167C14.481 6.44159 15.5139 5.38115 16.2299 4.12084ZM13.2381 0C13.2376 0.968556 12.9167 1.9109 12.3233 2.68594C11.7299 3.46098 10.896 4.027 9.94647 4.29925V5.75328C9.61197 5.69539 9.27376 5.6604 8.9343 5.64856C8.84295 5.64453 8.75079 5.64292 8.6578 5.64292C8.22417 5.64307 7.7919 5.59551 7.36913 5.50114V4.29925C6.4196 4.027 5.58572 3.46098 4.99233 2.68594C4.39894 1.9109 4.07798 0.968556 4.0775 0H6.46393C6.46365 0.337961 6.54517 0.671181 6.70179 0.972363C6.85841 1.27354 7.08569 1.53412 7.36501 1.73275C7.73896 2.00046 8.19041 2.14438 8.65368 2.14358C9.11914 2.14705 9.57355 2.0048 9.95058 1.73758C10.2308 1.53931 10.4589 1.27879 10.6163 0.977434C10.7736 0.676076 10.8557 0.342473 10.8558 0.00402802L13.2381 0ZM9.95058 16.439V9.22926C9.53657 9.08651 9.10084 9.01352 8.66191 9.01337C8.56974 9.01337 8.47758 9.01176 8.38541 9.00853C8.04671 9.0009 7.70875 8.974 7.37324 8.92798V16.439C7.78739 16.5809 8.22311 16.6531 8.66191 16.6524C9.1007 16.6531 9.53643 16.5809 9.95058 16.439Z" fill="#2FA957"/>
</svg>
