<svg width="160" height="160" viewBox="0 0 160 160" fill="none" xmlns="http://www.w3.org/2000/svg">
<circle cx="80" cy="80" r="66" fill="#EAF0F4"/>
<path d="M126.724 79.2699C126.678 79.2243 126.653 79.1624 126.653 79.0979C126.637 78.2986 126.876 77.5151 127.335 76.8607C127.737 76.2779 127.953 75.5867 127.953 74.8786C127.953 74.1706 127.737 73.4793 127.335 72.8966C126.891 72.2363 126.653 71.4584 126.653 70.6623C126.653 69.8663 126.891 69.0884 127.335 68.4281C127.743 67.8494 127.952 67.1537 127.929 66.446C127.952 65.7402 127.744 65.046 127.335 64.4699C126.891 63.8097 126.653 63.0317 126.653 62.2357C126.653 61.4396 126.891 60.6617 127.335 60.0014C127.743 59.4228 127.952 58.727 127.929 58.0194C127.952 57.3135 127.744 56.6193 127.335 56.0433C126.891 55.383 126.653 54.6051 126.653 53.809C126.653 53.013 126.891 52.2351 127.335 51.5748C127.743 50.9961 127.952 50.3004 127.929 49.5928C127.952 48.8869 127.744 48.1927 127.335 47.6166C126.891 46.9564 126.653 46.1784 126.653 45.3824C126.653 44.5864 126.891 43.8084 127.335 43.1482C127.743 42.5717 127.952 41.8778 127.929 41.172C127.929 41.1075 127.954 41.0456 128 41" stroke="#00AAB8"/>
<path d="M128.855 93.4231L133.009 141.544C133.347 145.455 130.95 148.891 127.668 149.17L36.3579 157.009C33.094 157.288 30.1507 154.315 29.8302 150.398L25.6762 102.277C25.5968 101.374 25.6669 100.463 25.8839 99.5829C26.5426 96.9006 28.5187 94.8355 30.9992 94.6515L122.304 86.8124C124.784 86.6047 127.087 88.2722 128.191 90.8002C128.556 91.6316 128.78 92.518 128.855 93.4231Z" fill="#6AD3DC"/>
<path d="M132.961 84.8186L138.895 134.156C139.382 138.168 137.038 141.788 133.691 142.191L40.0722 153.531C36.7253 153.935 33.592 150.98 33.1054 146.968L27.1355 97.6188C27.0188 96.693 27.059 95.7541 27.2542 94.8416C27.8476 92.0525 29.7941 89.8865 32.3399 89.5838L125.977 78.2553C128.516 77.9468 130.943 79.5787 132.166 82.1423C132.579 82.9837 132.848 83.8883 132.961 84.8186Z" fill="#9FE8ED"/>
<path fill-rule="evenodd" clip-rule="evenodd" d="M89.299 136.032C90.36 134.824 90.8889 133.254 90.7691 131.668C90.7061 130.822 90.4601 130 90.0473 129.256C89.6346 128.511 89.0646 127.862 88.3752 127.35C88.2333 127.246 88.0857 127.144 87.9343 127.05C87.1595 126.57 86.2835 126.269 85.3717 126.168C84.9844 126.125 84.5937 126.118 84.2048 126.148C84.1212 126.154 84.0382 126.159 83.9557 126.161C83.6488 126.172 83.3416 126.158 83.0373 126.119C82.8417 126.095 82.6476 126.061 82.4558 126.017C81.2816 125.744 80.2276 125.113 79.4457 124.214C78.6637 123.315 78.1943 122.196 78.1052 121.017L76 121.176C76.0974 122.473 76.5316 123.723 77.2616 124.808C77.9915 125.893 78.9929 126.776 80.1709 127.374C80.3297 127.456 80.4916 127.532 80.6569 127.601C81.4622 127.945 82.3219 128.151 83.1989 128.211C83.5867 128.238 83.9761 128.237 84.364 128.207C84.4476 128.201 84.5306 128.197 84.6132 128.197C84.9232 128.191 85.2327 128.222 85.5353 128.287C85.694 128.321 85.8504 128.364 86.0036 128.417C86.7377 128.67 87.38 129.127 87.8525 129.732C88.3249 130.337 88.6071 131.064 88.6645 131.825C88.743 132.864 88.3963 133.893 87.7008 134.685C87.0053 135.477 86.0178 135.967 84.9557 136.047C84.4299 136.087 83.9015 136.025 83.4008 135.864C82.9001 135.704 82.4369 135.449 82.0376 135.113C81.6383 134.777 81.3108 134.367 81.0737 133.906C80.8366 133.446 80.6946 132.944 80.6559 132.429C80.5984 131.669 80.768 130.908 81.1442 130.239C81.5203 129.57 82.0868 129.021 82.7744 128.661C81.9051 128.56 81.0582 128.324 80.2658 127.962C79.6616 128.571 79.1962 129.299 78.9005 130.097C78.6049 130.895 78.4857 131.745 78.5509 132.59C78.6706 134.176 79.429 135.649 80.6594 136.684C81.8897 137.719 83.4911 138.232 85.1114 138.109C86.7316 137.987 88.238 137.24 89.299 136.032ZM90.8738 123.78C91.4321 122.598 91.6733 121.297 91.5747 120L89.4673 120.159C89.5563 121.338 89.2606 122.515 88.6228 123.521C87.9851 124.527 87.0383 125.309 85.9188 125.756C86.8023 125.92 87.6415 126.259 88.3844 126.754C89.4586 125.985 90.3154 124.962 90.8738 123.78ZM87.9038 120.277C87.9691 121.148 87.7445 122.017 87.2635 122.755C86.7825 123.492 86.0711 124.057 85.2357 124.367L85.3344 125.674C85.0297 125.645 84.7232 125.636 84.4172 125.649C84.3348 125.651 84.2518 125.656 84.1682 125.662C83.7782 125.692 83.3863 125.678 82.9998 125.622L82.9182 124.542C82.0459 124.361 81.2576 123.909 80.6714 123.252C80.0853 122.596 79.7327 121.77 79.6665 120.899L81.8124 120.737C81.8351 121.041 81.931 121.335 82.0923 121.595C82.2536 121.855 82.4756 122.074 82.7403 122.234C83.0947 122.449 83.5104 122.548 83.927 122.516C84.3457 122.487 84.7447 122.329 85.0656 122.063C85.3041 121.866 85.4915 121.616 85.6126 121.334C85.7336 121.052 85.7848 120.747 85.7619 120.443L87.9038 120.277ZM86.0634 135.282L85.574 128.799C85.1921 128.699 84.7953 128.663 84.4006 128.693C84.3177 128.699 84.2348 128.704 84.1517 128.707C83.8466 128.723 83.5409 128.722 83.236 128.703L83.7458 135.457C84.1279 135.557 84.5246 135.592 84.9191 135.562C85.3137 135.533 85.7006 135.438 86.0634 135.282Z" fill="#00AAB8"/>
<path d="M132.166 82.1421L89.6944 110.739C87.6129 112.164 85.219 113.066 82.7152 113.369C80.2114 113.673 77.6713 113.369 75.3097 112.484L27.2422 94.8414C27.8356 92.0523 29.7821 89.8863 32.3279 89.5837L125.976 78.2552C128.516 77.9466 130.943 79.5607 132.166 82.1421Z" fill="#6AD3DC"/>
<path d="M116.344 92.8121L104.12 101.025L100.132 103.713L89.6935 110.739C87.6689 112.129 85.3452 113.022 82.9109 113.346C80.4766 113.67 78.0002 113.415 75.6827 112.603C75.5575 112.569 75.4346 112.528 75.3148 112.478L69.4636 110.33L56.2896 105.494L50.1298 103.233L43.1511 100.675L42.6527 88.3317L41.543 60.9154L95.1471 58.7375L115.573 74.22L115.786 79.4837L116.344 92.8121Z" fill="#ECFEFF"/>
<path d="M108.768 79.6795L49.4257 82.0888C49.0957 82.1003 48.7742 81.9828 48.5294 81.7612C48.2845 81.5397 48.1357 81.2314 48.1143 80.9019C48.1012 80.5715 48.2182 80.2492 48.4401 80.004C48.6619 79.7589 48.9711 79.6104 49.3011 79.5905L108.644 77.1812C108.974 77.1681 109.296 77.2851 109.542 77.507C109.787 77.7288 109.935 78.038 109.955 78.368C109.967 78.698 109.849 79.0195 109.628 79.2643C109.406 79.5092 109.098 79.6581 108.768 79.6795Z" fill="#6AD3DC"/>
<path d="M109.089 87.5602L49.7461 89.9695C49.4157 89.9825 49.0933 89.8656 48.8481 89.6437C48.603 89.4218 48.4545 89.1127 48.4346 88.7827C48.4216 88.4523 48.5385 88.1299 48.7604 87.8848C48.9823 87.6396 49.2914 87.4911 49.6214 87.4712L108.964 85.056C109.298 85.0463 109.623 85.1683 109.869 85.3959C110.114 85.6234 110.26 85.9382 110.275 86.2725C110.282 86.5988 110.162 86.9152 109.941 87.1552C109.72 87.3952 109.414 87.5404 109.089 87.5602Z" fill="#6AD3DC"/>
<path d="M109.409 95.4409L50.0664 97.8503C49.736 97.8633 49.4136 97.7463 49.1684 97.5244C48.9233 97.3026 48.7748 96.9935 48.7549 96.6634C48.7419 96.333 48.8589 96.0107 49.0807 95.7655C49.3026 95.5203 49.6117 95.3719 49.9417 95.3519L109.284 92.9426C109.615 92.9296 109.937 93.0466 110.182 93.2684C110.427 93.4903 110.576 93.7994 110.596 94.1295C110.609 94.4599 110.492 94.7822 110.27 95.0274C110.048 95.2726 109.739 95.421 109.409 95.4409Z" fill="#6AD3DC"/>
<path d="M104.121 101.025L100.133 103.713L56.2848 105.493L50.125 103.232H50.2852L104.121 101.025Z" fill="#6AD3DC"/>
<path d="M87.861 110.84V110.888C87.8618 111.211 87.7397 111.523 87.5193 111.76C87.299 111.997 86.9969 112.141 86.6742 112.164L75.6839 112.603C75.5587 112.569 75.4358 112.528 75.316 112.478L69.4648 110.33L86.5733 109.636C86.9026 109.629 87.2214 109.751 87.4619 109.976C87.7024 110.201 87.8456 110.511 87.861 110.84Z" fill="#6AD3DC"/>
<path opacity="0.5" d="M115.566 74.22L101.372 73.6088L95.1406 58.7375L115.566 74.22Z" fill="#9FE8ED"/>
<path d="M115.566 74.22L101.793 71.8582L95.1406 58.7375L115.566 74.22Z" fill="#6AD3DC"/>
<path d="M142.878 16.6576C142.878 28.722 129.651 40.5845 127.663 40.5845C125.675 40.5845 112.453 28.716 112.453 16.6576C112.453 8.56329 119.266 2 127.663 2C136.06 2 142.878 8.58109 142.878 16.6576Z" fill="#35BFCA"/>
<path opacity="0.1" d="M124.842 13.6907C122.089 16.6578 118.35 17.7616 116.492 16.0644C114.635 14.3672 115.353 10.5455 118.107 7.52497C120.86 4.50443 124.599 3.42439 126.456 5.11566C128.314 6.80692 127.619 10.6405 124.842 13.6907Z" fill="white"/>
<path opacity="0.1" d="M116.732 25.8202C116.364 24.9182 116.459 24.0399 116.94 23.8381C117.421 23.6364 118.127 24.2179 118.465 25.1199C118.803 26.0219 118.732 26.9002 118.251 27.102C117.771 27.3037 117.094 26.7459 116.732 25.8202Z" fill="white"/>
<path d="M127.662 40.0327C127.199 40.0327 124.102 42.8218 124.102 45.6584H131.24C131.24 42.8218 128.131 40.0327 127.662 40.0327Z" fill="#35BFCA"/>
<path d="M47.419 27.9327C47.419 39.997 34.1974 51.8596 32.2095 51.8596C30.2215 51.8596 17 39.9911 17 27.9327C17 19.8384 23.8125 13.281 32.2095 13.281C40.6064 13.281 47.419 19.8562 47.419 27.9327Z" fill="#35BFCA"/>
<path opacity="0.1" d="M29.7715 25.4426C32.5236 22.4212 33.2482 18.5997 31.3898 16.9069C29.5314 15.2141 25.7939 16.2912 23.0418 19.3125C20.2896 22.3339 19.5651 26.1555 21.4235 27.8482C23.2819 29.541 27.0194 28.464 29.7715 25.4426Z" fill="white"/>
<path opacity="0.1" d="M21.6576 37.5877C21.2956 36.6857 21.3906 35.8074 21.8653 35.6057C22.3401 35.4039 23.0522 35.9914 23.3904 36.8875C23.7287 37.7835 23.6575 38.6677 23.1827 38.8695C22.708 39.0713 22.0196 38.4897 21.6576 37.5877Z" fill="white"/>
<path d="M31.3923 89.7856C31.3467 89.7399 31.321 89.678 31.321 89.6135C31.3054 88.8143 31.5445 88.0308 32.0035 87.3763C32.4057 86.7936 32.6211 86.1023 32.6211 85.3943C32.6211 84.6862 32.4057 83.9949 32.0035 83.4122C31.5588 82.7519 31.3213 81.974 31.3213 81.178C31.3213 80.3819 31.5588 79.604 32.0035 78.9437C32.4114 78.3651 32.6197 77.6693 32.5969 76.9617C32.6206 76.2558 32.4121 75.5616 32.0035 74.9856C31.5588 74.3253 31.3213 73.5474 31.3213 72.7513C31.3213 71.9553 31.5588 71.1773 32.0035 70.5171C32.4114 69.9384 32.6197 69.2426 32.5969 68.535C32.6206 67.8291 32.4121 67.135 32.0035 66.5589C31.5588 65.8987 31.3213 65.1207 31.3213 64.3247C31.3213 63.5286 31.5588 62.7507 32.0035 62.0904C32.4114 61.5118 32.6197 60.816 32.5969 60.1084C32.6206 59.4025 32.4121 58.7083 32.0035 58.1323C31.5588 57.472 31.3213 56.6941 31.3213 55.898C31.3213 55.102 31.5588 54.324 32.0035 53.6638C32.4113 53.0873 32.6197 52.3934 32.5969 51.6877C32.5969 51.6231 32.6226 51.5613 32.6682 51.5156" stroke="#00AAB8"/>
<path d="M32.209 51.3137C31.7461 51.3137 28.6484 54.1028 28.6484 56.9394H35.7695C35.7874 54.1028 32.6719 51.3137 32.209 51.3137Z" fill="#35BFCA"/>
<path d="M31 51.5H33.5" stroke="#00AAB8" stroke-linecap="round"/>
<path d="M126.5 40.5H129" stroke="#00AAB8" stroke-linecap="round"/>
</svg>
