<svg width="24" height="24" viewBox="0 0 24 24" fill="none" xmlns="http://www.w3.org/2000/svg">
<path d="M3.24357 13.8057C2.8178 11.8188 2.60491 10.8253 2.86603 10.0464C3.09502 9.36338 3.56215 8.78555 4.18204 8.41853C4.88894 8 5.90497 8 7.93702 8H16.0619C18.094 8 19.11 8 19.8169 8.41853C20.4368 8.78555 20.9039 9.36338 21.1329 10.0464C21.3941 10.8253 21.1812 11.8188 20.7554 13.8057L20.3546 15.6762C19.8713 17.9313 19.6297 19.0588 19.0297 19.9011C18.5005 20.644 17.7781 21.2279 16.9409 21.5898C15.9916 22 14.8384 22 12.5322 22H11.4668C9.16054 22 8.0074 22 7.0581 21.5898C6.22084 21.2279 5.4985 20.644 4.96928 19.9011C4.36924 19.0588 4.12762 17.9313 3.64439 15.6762L3.24357 13.8057Z" fill="#35BFCA"/>
<path d="M16 8V5.42857C16 3.53502 14.2091 2 12 2C9.79083 2 7.99997 3.53502 7.99997 5.42857V8M11.4668 22H12.5322C14.8384 22 15.9916 22 16.9409 21.5898C17.7781 21.2279 18.5005 20.644 19.0297 19.9011C19.6297 19.0588 19.8713 17.9313 20.3546 15.6762L20.7554 13.8057C21.1812 11.8188 21.3941 10.8253 21.1329 10.0464C20.9039 9.36338 20.4368 8.78555 19.8169 8.41853C19.11 8 18.094 8 16.0619 8H7.93702C5.90497 8 4.88894 8 4.18204 8.41853C3.56215 8.78555 3.09502 9.36338 2.86603 10.0464C2.60491 10.8253 2.8178 11.8188 3.24357 13.8057L3.64439 15.6762C4.12762 17.9313 4.36924 19.0588 4.96928 19.9011C5.4985 20.644 6.22084 21.2279 7.0581 21.5898C8.0074 22 9.16054 22 11.4668 22Z" stroke="white" stroke-linecap="round" stroke-linejoin="round"/>
</svg>
